<svg aria-hidden="true" style="position: absolute; width: 0; height: 0; overflow: hidden;" version="1.1" xmlns="http://www.w3.org/2000/svg" xmlns:xlink="http://www.w3.org/1999/xlink">
<defs>
<symbol id="icon-appleinc" viewBox="0 0 32 32">
<path d="M24.734 17.003c-0.040-4.053 3.305-5.996 3.454-6.093-1.88-2.751-4.808-3.127-5.851-3.171-2.492-0.252-4.862 1.467-6.127 1.467-1.261 0-3.213-1.43-5.28-1.392-2.716 0.040-5.221 1.579-6.619 4.012-2.822 4.897-0.723 12.151 2.028 16.123 1.344 1.944 2.947 4.127 5.051 4.049 2.026-0.081 2.793-1.311 5.242-1.311s3.138 1.311 5.283 1.271c2.18-0.041 3.562-1.981 4.897-3.931 1.543-2.255 2.179-4.439 2.216-4.551-0.048-0.022-4.252-1.632-4.294-6.473zM20.705 5.11c1.117-1.355 1.871-3.235 1.665-5.11-1.609 0.066-3.559 1.072-4.713 2.423-1.036 1.199-1.942 3.113-1.699 4.951 1.796 0.14 3.629-0.913 4.747-2.264z"></path>
</symbol>
<symbol id="icon-android" viewBox="0 0 32 32">
<path d="M28 12c-1.1 0-2 0.9-2 2v8c0 1.1 0.9 2 2 2s2-0.9 2-2v-8c0-1.1-0.9-2-2-2zM4 12c-1.1 0-2 0.9-2 2v8c0 1.1 0.9 2 2 2s2-0.9 2-2v-8c0-1.1-0.9-2-2-2zM7 23c0 1.657 1.343 3 3 3v0 4c0 1.1 0.9 2 2 2s2-0.9 2-2v-4h4v4c0 1.1 0.9 2 2 2s2-0.9 2-2v-4c1.657 0 3-1.343 3-3v-11h-18v11z"></path>
<path d="M24.944 10c-0.304-2.746-1.844-5.119-4.051-6.551l1.001-2.001c0.247-0.494 0.047-1.095-0.447-1.342s-1.095-0.047-1.342 0.447l-1.004 2.009-0.261-0.104c-0.893-0.297-1.848-0.458-2.84-0.458s-1.947 0.161-2.84 0.458l-0.261 0.104-1.004-2.009c-0.247-0.494-0.848-0.694-1.342-0.447s-0.694 0.848-0.447 1.342l1.001 2.001c-2.207 1.433-3.747 3.805-4.051 6.551v1h17.944v-1h-0.056zM13 8c-0.552 0-1-0.448-1-1s0.447-0.999 0.998-1c0.001 0 0.002 0 0.003 0s0.001-0 0.002-0c0.551 0.001 0.998 0.448 0.998 1s-0.448 1-1 1zM19 8c-0.552 0-1-0.448-1-1s0.446-0.999 0.998-1c0 0 0.001 0 0.002 0s0.002-0 0.003-0c0.551 0.001 0.998 0.448 0.998 1s-0.448 1-1 1z"></path>

<symbol id="icon-linked" viewBox="0 0 32 32">
  <path d="M7.409 31.111h-6.45v-20.771h6.45v20.771zM4.18 7.507c-2.062 0-3.736-1.709-3.736-3.771 0-0.991 0.394-1.941 1.094-2.641s1.651-1.094 2.641-1.094c0.991 0 1.941 0.394 2.641 1.094s1.094 1.651 1.094 2.641c0 2.062-1.673 3.771-3.736 3.771zM31.549 31.111h-6.436v-10.111c0-2.41-0.049-5.5-3.353-5.5-3.353 0-3.868 2.618-3.868 5.327v10.284h-6.443v-20.771h6.186v2.833h0.090c0.861-1.632 2.964-3.354 6.102-3.354 6.528 0 7.728 4.299 7.728 9.882v11.41h-0.006z"></path>
</symbol>
<symbol id="icon-facebook" viewBox="0 0 18 32">
  <path d="M17.778 1.185h-4.444c-1.965 0-3.849 0.78-5.238 2.17s-2.17 3.273-2.17 5.238v4.444h-4.444v5.926h4.444v11.852h5.926v-11.852h4.444l1.482-5.926h-5.926v-4.444c0-0.393 0.156-0.77 0.434-1.048s0.655-0.434 1.048-0.434h4.444v-5.926z"></path>
</symbol>
<symbol id="icon-twiter" viewBox="0 0 38 32">
   <path d="M38.045 1.065c-1.579 1.114-3.327 1.965-5.176 2.522-0.993-1.142-2.312-1.951-3.78-2.318s-3.013-0.275-4.426 0.265c-1.414 0.539-2.627 1.5-3.477 2.752s-1.295 2.734-1.274 4.247v1.649c-2.897 0.075-5.768-0.567-8.356-1.87s-4.815-3.226-6.48-5.597c0 0-6.594 14.836 8.242 21.43-3.395 2.305-7.439 3.46-11.539 3.297 14.836 8.242 32.97 0 32.97-18.958-0.002-0.459-0.046-0.917-0.132-1.368 1.683-1.659 2.87-3.754 3.429-6.050z"></path>

</symbol>
</defs>
</svg>
